<svg width="260" height="27" viewBox="0 0 260 27" fill="none" xmlns="http://www.w3.org/2000/svg">
<path d="M0.68 0.683134H18.32V2.01513H2.012V12.1671H16.196V13.4991H2.012V24.4071H18.32V25.7391H0.68V0.683134ZM29.7764 13.9671V12.6351H42.1604V13.9671H29.7764ZM54.8769 25.7391V0.683134H56.2089V24.4071H73.6689V25.7391H54.8769ZM80.6253 0.683134H98.2653V2.01513H81.9573V12.1671H96.1413V13.4991H81.9573V24.4071H98.2653V25.7391H80.6253V0.683134ZM115.23 0.683134H116.634L126.93 25.7391H125.49L122.106 17.4591H109.758L106.338 25.7391H104.934L115.23 0.683134ZM110.298 16.1631H121.566L115.914 2.41114L110.298 16.1631ZM147.998 1.51113C149.438 2.18313 150.566 3.17913 151.382 4.49913C152.222 5.81913 152.642 7.28313 152.642 8.89113C152.642 10.7631 152.066 12.4431 150.914 13.9311C149.786 15.3951 148.334 16.3671 146.558 16.8471L152.93 25.7391H151.346L145.19 17.0991L144.038 17.1351H135.002V25.7391H133.67V0.683134H143.21C144.266 0.683134 145.166 0.755134 145.91 0.899134C146.678 1.01913 147.374 1.22313 147.998 1.51113ZM144.398 15.8031C145.646 15.8031 146.798 15.4911 147.854 14.8671C148.91 14.2431 149.75 13.4031 150.374 12.3471C150.998 11.2911 151.31 10.1391 151.31 8.89113C151.31 7.49913 150.938 6.23914 150.194 5.11114C149.474 3.98314 148.466 3.14314 147.17 2.59114C146.234 2.20713 144.914 2.01513 143.21 2.01513H135.002V15.8031H144.398ZM159.419 25.7391V0.683134H160.823L178.319 17.6751V0.683134H179.651V25.7391H178.319V19.5471L160.751 2.41114V25.7391H159.419ZM203.995 0.683134V2.01513H196.507V24.4071H203.995V25.7391H187.759V24.4071H195.211V2.01513H187.759V0.683134H203.995ZM212.716 25.7391V0.683134H214.12L231.616 17.6751V0.683134H232.948V25.7391H231.616V19.5471L214.048 2.41114V25.7391H212.716ZM257.976 20.5911C257.328 22.2471 256.152 23.6151 254.448 24.6951C252.744 25.7511 250.92 26.2791 248.976 26.2791C247.104 26.2791 245.376 25.8111 243.792 24.8751C242.208 23.9391 240.948 22.6551 240.012 21.0231C239.1 19.3671 238.644 17.5551 238.644 15.5871V10.5471C238.644 8.62713 239.1 6.87513 240.012 5.29114C240.948 3.70714 242.196 2.45914 243.756 1.54713C245.34 0.611135 247.08 0.143135 248.976 0.143135C250.536 0.143135 251.964 0.407135 253.26 0.935135C254.556 1.43913 255.66 2.18313 256.572 3.16713C257.316 3.98313 257.916 4.89513 258.372 5.90314C258.852 6.91114 259.092 7.93114 259.092 8.96314H257.796C257.772 8.07513 257.544 7.19913 257.112 6.33513C256.704 5.47113 256.176 4.69113 255.528 3.99513C253.92 2.31513 251.736 1.47513 248.976 1.47513C247.32 1.47513 245.796 1.88313 244.404 2.69913C243.036 3.49113 241.956 4.58313 241.164 5.97513C240.372 7.34314 239.976 8.86714 239.976 10.5471V15.5871C239.976 17.3391 240.372 18.9351 241.164 20.3751C241.98 21.7911 243.072 22.9071 244.44 23.7231C245.832 24.5391 247.344 24.9471 248.976 24.9471C250.632 24.9471 252.144 24.5511 253.512 23.7591C254.904 22.9431 255.996 21.8511 256.788 20.4831C257.58 19.0911 257.976 17.5791 257.976 15.9471V14.6871H248.976V13.3551H259.308V25.7391H257.976V20.5911Z" fill="#83CDC9"/>
</svg>
