<svg width="14" height="13" viewBox="0 0 14 13" fill="none" xmlns="http://www.w3.org/2000/svg">
<path d="M12.7891 9.18516V10.8712C12.7898 11.0277 12.756 11.1827 12.6898 11.3261C12.6237 11.4695 12.5267 11.5982 12.405 11.704C12.2834 11.8099 12.1398 11.8904 11.9834 11.9406C11.827 11.9907 11.6613 12.0093 11.4969 11.9952C9.67281 11.8073 7.92068 11.2164 6.38125 10.2698C4.94901 9.40696 3.73472 8.25568 2.82462 6.89775C1.82282 5.43156 1.19938 3.76225 1.00481 2.02506C0.989998 1.86964 1.00948 1.713 1.06201 1.56512C1.11455 1.41723 1.19899 1.28133 1.30995 1.16608C1.42091 1.05083 1.55597 0.958747 1.70653 0.895695C1.85708 0.832644 2.01984 0.800006 2.18443 0.799859H3.96274C4.25042 0.797175 4.52931 0.89376 4.74743 1.07161C4.96555 1.24947 5.10802 1.49645 5.14828 1.76653C5.22334 2.3061 5.36254 2.83589 5.56322 3.3458C5.64298 3.54696 5.66024 3.76558 5.61296 3.97575C5.56569 4.18593 5.45585 4.37885 5.29648 4.53165L4.54366 5.24542C5.3875 6.65245 6.61626 7.81746 8.10029 8.61752L8.85311 7.90376C9.01427 7.75265 9.21775 7.64852 9.43943 7.60369C9.6611 7.55887 9.89169 7.57523 10.1039 7.65085C10.6417 7.84112 11.2004 7.9731 11.7695 8.04426C12.0575 8.08278 12.3205 8.22029 12.5085 8.43064C12.6964 8.641 12.7963 8.90953 12.7891 9.18516Z" stroke="#4DABF7" stroke-width="1.4" stroke-linecap="round" stroke-linejoin="round"/>
</svg>
